<svg aria-hidden="true" style="position: absolute; width: 0; height: 0; overflow: hidden;" version="1.1" xmlns="http://www.w3.org/2000/svg" xmlns:xlink="http://www.w3.org/1999/xlink">
<defs>
<symbol id="icon-chocolate" viewBox="0 0 27 32">
<path fill="none" stroke="#fd9222" style="stroke: var(--color1, #fd9222)" stroke-linejoin="round" stroke-linecap="round" stroke-miterlimit="4" stroke-width="2.7429" d="M20.111 23.118l-14.185-8.864M9.837 7.837l14.186 8.864M9.106 25.102l11.736-19.25M25.652 14.027c-3.040-1.899-4.234-3.384-2.278-6.592l-9.626-6.015-11.736 19.25 14.186 8.864 9.454-15.507z"></path>
</symbol>
<symbol id="icon-taste" viewBox="0 0 28 29">
<path d="M11.822 0.413012L19.349 7.94901L19.429 7.86901C19.5867 7.71469 19.7978 7.6272 20.0184 7.62477C20.239 7.62235 20.452 7.70519 20.613 7.85601L20.619 7.86201L21.486 8.72901C21.791 9.03401 21.801 9.49901 21.569 9.82301L21.565 9.83001L21.422 10.022L27.582 16.182C28.132 16.732 28.132 17.612 27.582 18.162L18.152 27.592C17.602 28.142 16.722 28.142 16.172 27.592L11.725 23.145C11.6512 23.2381 11.5584 23.3145 11.4529 23.3692C11.3474 23.4239 11.2316 23.4556 11.1129 23.4623C10.9943 23.469 10.8756 23.4505 10.7646 23.4081C10.6536 23.3656 10.5529 23.3002 10.469 23.216L7.86901 20.616C7.71469 20.4584 7.6272 20.2472 7.62477 20.0266C7.62235 19.806 7.70519 19.593 7.85601 19.432L7.86201 19.425L7.93901 19.349L0.412012 11.822C-0.137988 11.272 -0.137988 10.392 0.412012 9.84201L9.84201 0.412012C10.392 -0.137988 11.272 -0.137988 11.822 0.412012V0.413012ZM18.404 8.89301L16.648 7.13801C16.5928 7.0811 16.5268 7.03585 16.4538 7.00495C16.3808 6.97405 16.3023 6.95813 16.223 6.95813C16.1437 6.95813 16.0653 6.97405 15.9923 7.00495C15.9193 7.03585 15.8532 7.0811 15.798 7.13801L12.218 10.718C12.1613 10.7743 12.1163 10.8413 12.0856 10.9151C12.0548 10.9889 12.039 11.0681 12.039 11.148C12.039 11.2279 12.0548 11.3071 12.0856 11.3809C12.1163 11.4547 12.1613 11.5217 12.218 11.578L13.967 13.327L14.577 12.717L13.012 11.152L16.222 7.93201L17.791 9.50601L18.404 8.89301ZM13.328 13.965L11.574 12.211C11.5188 12.1541 11.4528 12.1088 11.3798 12.0779C11.3068 12.047 11.2283 12.0311 11.149 12.0311C11.0697 12.0311 10.9913 12.047 10.9183 12.0779C10.8453 12.1088 10.7792 12.1541 10.724 12.211L7.14401 15.791L7.13901 15.796L7.13401 15.801C6.89401 16.031 6.89401 16.411 7.13401 16.651L8.88601 18.403L9.50201 17.787L7.93201 16.223L11.152 13.013L12.716 14.576L13.328 13.965ZM6.82201 6.19301L10.402 9.77301C10.642 10.013 11.022 10.013 11.252 9.76301L14.832 6.18301C14.8889 6.12884 14.9342 6.06368 14.9651 5.99148C14.9961 5.91929 15.012 5.84156 15.012 5.76301H15.022C15.022 5.61301 14.962 5.45301 14.842 5.33301L11.262 1.75301C11.2058 1.69617 11.1388 1.65105 11.065 1.62025C10.9912 1.58946 10.912 1.5736 10.832 1.5736C10.752 1.5736 10.6729 1.58946 10.599 1.62025C10.5252 1.65105 10.4583 1.69617 10.402 1.75301L6.82201 5.34301C6.58201 5.57301 6.58201 5.95301 6.82201 6.19301ZM1.75201 11.263L5.33201 14.843C5.57201 15.083 5.95201 15.083 6.18201 14.843L9.76201 11.263C9.82013 11.2077 9.86613 11.1409 9.89711 11.0669C9.9281 10.9929 9.94339 10.9132 9.94201 10.833H9.95201C9.95201 10.673 9.89201 10.523 9.77201 10.403L6.19201 6.82301C6.13683 6.7661 6.07077 6.72085 5.99776 6.68995C5.92476 6.65905 5.84629 6.64313 5.76701 6.64313C5.68774 6.64313 5.60927 6.65905 5.53626 6.68995C5.46326 6.72085 5.3972 6.7661 5.34201 6.82301L1.75201 10.413C1.51201 10.643 1.51201 11.023 1.75201 11.263ZM8.68501 20.017L11.047 22.38L20.683 9.34001L20.028 8.68501L8.68501 20.017Z" fill="black"/>
<path d="M11.822 0.413012L19.349 7.94901L19.429 7.86901C19.5867 7.71469 19.7978 7.6272 20.0184 7.62477C20.239 7.62235 20.452 7.70519 20.613 7.85601L20.619 7.86201L21.486 8.72901C21.791 9.03401 21.801 9.49901 21.569 9.82301L21.565 9.83001L21.422 10.022L27.582 16.182C28.132 16.732 28.132 17.612 27.582 18.162L18.152 27.592C17.602 28.142 16.722 28.142 16.172 27.592L11.725 23.145C11.6512 23.2381 11.5584 23.3145 11.4529 23.3692C11.3474 23.4239 11.2316 23.4556 11.1129 23.4623C10.9943 23.469 10.8756 23.4505 10.7646 23.4081C10.6536 23.3656 10.5529 23.3002 10.469 23.216L7.86901 20.616C7.71469 20.4584 7.6272 20.2472 7.62477 20.0266C7.62235 19.806 7.70519 19.593 7.85601 19.432L7.86201 19.425L7.93901 19.349L0.412012 11.822C-0.137988 11.272 -0.137988 10.392 0.412012 9.84201L9.84201 0.412012C10.392 -0.137988 11.272 -0.137988 11.822 0.412012V0.413012ZM18.404 8.89301L16.648 7.13801C16.5928 7.0811 16.5268 7.03585 16.4538 7.00495C16.3808 6.97405 16.3023 6.95813 16.223 6.95813C16.1437 6.95813 16.0653 6.97405 15.9923 7.00495C15.9193 7.03585 15.8532 7.0811 15.798 7.13801L12.218 10.718C12.1613 10.7743 12.1163 10.8413 12.0856 10.9151C12.0548 10.9889 12.039 11.0681 12.039 11.148C12.039 11.2279 12.0548 11.3071 12.0856 11.3809C12.1163 11.4547 12.1613 11.5217 12.218 11.578L13.967 13.327L14.577 12.717L13.012 11.152L16.222 7.93201L17.791 9.50601L18.404 8.89301ZM13.328 13.965L11.574 12.211C11.5188 12.1541 11.4528 12.1088 11.3798 12.0779C11.3068 12.047 11.2283 12.0311 11.149 12.0311C11.0697 12.0311 10.9913 12.047 10.9183 12.0779C10.8453 12.1088 10.7792 12.1541 10.724 12.211L7.14401 15.791L7.13901 15.796L7.13401 15.801C6.89401 16.031 6.89401 16.411 7.13401 16.651L8.88601 18.403L9.50201 17.787L7.93201 16.223L11.152 13.013L12.716 14.576L13.328 13.965ZM6.82201 6.19301L10.402 9.77301C10.642 10.013 11.022 10.013 11.252 9.76301L14.832 6.18301C14.8889 6.12884 14.9342 6.06368 14.9651 5.99148C14.9961 5.91929 15.012 5.84156 15.012 5.76301H15.022C15.022 5.61301 14.962 5.45301 14.842 5.33301L11.262 1.75301C11.2058 1.69617 11.1388 1.65105 11.065 1.62025C10.9912 1.58946 10.912 1.5736 10.832 1.5736C10.752 1.5736 10.6729 1.58946 10.599 1.62025C10.5252 1.65105 10.4583 1.69617 10.402 1.75301L6.82201 5.34301C6.58201 5.57301 6.58201 5.95301 6.82201 6.19301ZM1.75201 11.263L5.33201 14.843C5.57201 15.083 5.95201 15.083 6.18201 14.843L9.76201 11.263C9.82013 11.2077 9.86613 11.1409 9.89711 11.0669C9.9281 10.9929 9.94339 10.9132 9.94201 10.833H9.95201C9.95201 10.673 9.89201 10.523 9.77201 10.403L6.19201 6.82301C6.13683 6.7661 6.07077 6.72085 5.99776 6.68995C5.92476 6.65905 5.84629 6.64313 5.76701 6.64313C5.68774 6.64313 5.60927 6.65905 5.53626 6.68995C5.46326 6.72085 5.3972 6.7661 5.34201 6.82301L1.75201 10.413C1.51201 10.643 1.51201 11.023 1.75201 11.263ZM8.68501 20.017L11.047 22.38L20.683 9.34001L20.028 8.68501L8.68501 20.017Z" fill="#FD9222"/>
</symbol>
<symbol id="icon-price" viewBox="0 0 28 28">
<path d="M14 0.666626C6.66669 0.666626 0.666687 6.66663 0.666687 14C0.666687 21.3333 6.66669 27.3333 14 27.3333C21.3334 27.3333 27.3334 21.3333 27.3334 14C27.3334 6.66663 21.3334 0.666626 14 0.666626ZM14 24.6666C8.13335 24.6666 3.33335 19.8666 3.33335 14C3.33335 8.13329 8.13335 3.33329 14 3.33329C19.8667 3.33329 24.6667 8.13329 24.6667 14C24.6667 19.8666 19.8667 24.6666 14 24.6666Z" fill="#FD9222"/>
<path d="M15.7334 12.6667H12.2667C11.6 12.6667 11.0667 12.1333 11.0667 11.4667C11.0667 10.8 11.6 10.2667 12.2667 10.2667H17.2C18 10.2667 18.5334 9.73332 18.5334 8.93332C18.5334 8.13332 18 7.59998 17.2 7.59998H15.3334V6.39998C15.3334 5.59998 14.8 5.06665 14 5.06665C13.2 5.06665 12.6667 5.59998 12.6667 6.39998V7.59998H12.2667C10.1334 7.59998 8.40002 9.33332 8.40002 11.4667C8.40002 13.6 10.1334 15.3333 12.2667 15.3333H15.6C16.2667 15.3333 16.8 15.8666 16.8 16.5333C16.8 17.2 16.2667 17.7333 15.6 17.7333H10.6667C9.86669 17.7333 9.33336 18.2667 9.33336 19.0667C9.33336 19.8667 9.86669 20.4 10.6667 20.4H12.6667V21.6C12.6667 22.4 13.2 22.9333 14 22.9333C14.8 22.9333 15.3334 22.4 15.3334 21.6V20.4H15.7334C17.8667 20.4 19.6 18.6667 19.6 16.5333C19.6 14.4 17.8667 12.6667 15.7334 12.6667Z" fill="#FD9222"/>
</symbol>
<symbol id="icon-production" viewBox="0 0 28 28">
<path d="M13.4515 12.1059C12.669 11.1559 12.275 9.98991 12.275 8.82395C12.275 4.50016 17.4561 0.181763 22.6371 0.181763C25.4975 0.181763 27.8182 2.5029 27.8182 5.36383C27.8182 10.5459 23.5006 15.728 19.1723 15.728C18.0066 15.728 16.8408 15.3339 15.891 14.5512L3.1326 27.3121C2.45798 27.9868 1.3624 27.9868 0.687787 27.3121C0.0131694 26.6373 0.0131694 25.5415 0.687787 24.8668L13.4515 12.1059Z" fill="#FD9222"/>
</symbol>
<symbol id="icon-instagram" viewBox="0 0 22 22">
<path d="M16 1H6C3.23858 1 1 3.23858 1 6V16C1 18.7614 3.23858 21 6 21H16C18.7614 21 21 18.7614 21 16V6C21 3.23858 18.7614 1 16 1Z" stroke-width="2" stroke-linecap="round" stroke-linejoin="round"/>
</symbol>
<symbol id="icon-twitter" viewBox="0 0 24 21">
<path d="M23 2.00005C22.0424 2.67552 20.9821 3.19216 19.86 3.53005C19.2577 2.83756 18.4573 2.34674 17.567 2.12397C16.6767 1.90121 15.7395 1.95724 14.8821 2.2845C14.0247 2.61176 13.2884 3.19445 12.773 3.95376C12.2575 4.71308 11.9877 5.61238 12 6.53005V7.53005C10.2426 7.57561 8.50127 7.18586 6.93101 6.39549C5.36074 5.60513 4.01032 4.43868 3 3.00005C3 3.00005 -1 12 8 16C5.94053 17.398 3.48716 18.099 1 18C10 23 21 18 21 6.50005C20.9991 6.2215 20.9723 5.94364 20.92 5.67005C21.9406 4.66354 22.6608 3.39276 23 2.00005Z" stroke-width="2" stroke-linecap="round" stroke-linejoin="round"/>
</symbol>
</defs>
</svg>
